<svg width="41" height="40" viewBox="0 0 41 40" fill="none" xmlns="http://www.w3.org/2000/svg">
<g id="Group">
<path id="Vector" d="M39.9749 24.8381C37.3037 35.5525 26.4518 42.0731 15.7362 39.4013C5.02492 36.73 -1.4957 25.8775 1.1768 15.1638C3.8468 4.44813 14.6987 -2.07312 25.4112 0.598131C36.1262 3.26938 42.6462 14.1231 39.9749 24.8381Z" fill="#F7931A"/>
<path id="Vector_2" d="M29.3937 17.1506C29.7918 14.4894 27.7656 13.0588 24.9949 12.1044L25.8937 8.49938L23.6993 7.9525L22.8243 11.4625C22.2474 11.3188 21.6549 11.1831 21.0662 11.0487L21.9474 7.51562L19.7543 6.96875L18.8549 10.5725C18.3774 10.4638 17.9087 10.3563 17.4537 10.2431L17.4562 10.2319L14.4299 9.47625L13.8462 11.82C13.8462 11.82 15.4743 12.1931 15.4399 12.2162C16.3287 12.4381 16.4893 13.0262 16.4624 13.4925L15.4387 17.5994C15.4999 17.615 15.5793 17.6375 15.6668 17.6725C15.5937 17.6544 15.5156 17.6344 15.4349 17.615L13.9999 23.3681C13.8912 23.6381 13.6156 24.0431 12.9943 23.8894C13.0162 23.9213 11.3993 23.4913 11.3993 23.4913L10.3099 26.0031L13.1656 26.715C13.6968 26.8481 14.2174 26.9875 14.7299 27.1188L13.8218 30.765L16.0137 31.3119L16.9131 27.7044C17.5118 27.8669 18.0931 28.0169 18.6618 28.1581L17.7656 31.7487L19.9599 32.2956L20.8681 28.6562C24.6099 29.3644 27.4237 29.0787 28.6081 25.6944C29.5624 22.9694 28.5606 21.3975 26.5918 20.3725C28.0256 20.0419 29.1056 19.0988 29.3937 17.1506ZM24.3799 24.1813C23.7018 26.9062 19.1137 25.4331 17.6262 25.0637L18.8312 20.2331C20.3187 20.6044 25.0887 21.3394 24.3799 24.1813ZM25.0587 17.1112C24.4399 19.59 20.6212 18.3306 19.3824 18.0219L20.4749 13.6406C21.7137 13.9494 25.7031 14.5256 25.0587 17.1112Z" fill="white"/>
</g>
</svg>
