<svg width="24" height="24" viewBox="0 0 24 24" fill="none" xmlns="http://www.w3.org/2000/svg">
<g clip-path="url(#clip0_80_336)">
<path d="M7.23558 10.085L11.8964 5.42436L16.5597 10.0875L19.2717 7.37547L11.8964 0L4.52359 7.37301L7.23558 10.085Z" fill="#F3BA2F"/>
<path d="M5.32039 11.9996L2.60844 9.28763L-0.103638 11.9997L2.60831 14.7117L5.32039 11.9996Z" fill="#F3BA2F"/>
<path d="M7.23558 13.915L11.8964 18.5756L16.5595 13.9127L19.273 16.6232L19.2717 16.6247L11.8964 24L4.51961 16.6234L7.23558 13.915Z" fill="#F3BA2F"/>
<path d="M21.1846 14.7129L23.8967 12.0009L21.1848 9.28891L18.4727 12.001L21.1846 14.7129Z" fill="#F3BA2F"/>
<path d="M14.6473 11.9986H14.6484L11.8964 9.24659L9.14309 11.9999L9.14688 12.0039L11.8964 14.7534L14.6484 12.0014L14.6497 11.9999L14.6473 11.9986Z" fill="#F3BA2F"/>
</g>
<defs>
<clipPath id="clip0_80_336">
<rect width="24" height="24" fill="white"/>
</clipPath>
</defs>
</svg>
