<svg width="16" height="16" viewBox="0 0 16 16" fill="none" xmlns="http://www.w3.org/2000/svg">
<path d="M11.5 3.25C12.3203 3.25 13 3.92969 13 4.75V12.25C13 13.0938 12.3203 13.75 11.5 13.75H4C3.15625 13.75 2.5 13.0938 2.5 12.25V4.75C2.5 3.92969 3.15625 3.25 4 3.25H11.5ZM10.2344 10.0938H10.2109V6.36719C10.2109 6.17969 10.0703 6.01562 9.85938 6.01562H6.15625C5.99219 6.01562 5.85156 6.10938 5.80469 6.25C5.73438 6.39062 5.78125 6.55469 5.875 6.64844L6.95312 7.70312L5.35938 9.29688C5.05469 9.60156 5.05469 10.0703 5.35938 10.375L5.875 10.8906C6.17969 11.1953 6.64844 11.1953 6.95312 10.8906L8.52344 9.29688L9.60156 10.375C9.69531 10.4688 9.85938 10.5156 10 10.4453C10.1406 10.3984 10.2344 10.2578 10.2344 10.0938Z" fill="#F7931A"/>
</svg>
