<svg width="24" height="24" viewBox="0 0 24 24" fill="none" xmlns="http://www.w3.org/2000/svg">
<path d="M11.2281 2.42642C13.3133 2.28607 15.4386 2.70712 17.3033 3.64947C20.0702 5.01288 22.2757 7.459 23.2982 10.3462C23.7594 11.6294 24 12.9728 24 14.3362V19.3688C24 19.5693 24 19.7898 23.9599 19.9903C23.8396 20.4916 23.4787 20.9527 22.9975 21.1733C22.6566 21.3337 22.2757 21.3537 21.9348 21.2936C21.1729 21.1532 20.5714 20.4314 20.5714 19.6495C20.5714 18.0856 20.5714 16.5217 20.5714 14.9577C20.5915 14.5166 20.5915 14.0354 20.3509 13.6545C19.9699 12.9327 19.0075 12.5918 18.2657 12.8926C17.6241 13.1131 17.1629 13.7748 17.1429 14.4565V19.2084C17.1429 19.5091 17.1629 19.8099 17.0627 20.0906C16.9023 20.652 16.4411 21.0931 15.8797 21.2535C15.1378 21.454 14.2957 21.1332 13.9348 20.4515C13.6742 20.0505 13.6942 19.5492 13.7143 19.0881C13.7143 17.5041 13.7143 15.9402 13.7143 14.3562C13.6942 13.5542 13.0326 12.8324 12.2506 12.7322C11.7293 12.652 11.188 12.8324 10.807 13.1933C10.4662 13.5141 10.2857 13.9753 10.2857 14.4364V19.0279C10.2857 19.4089 10.3258 19.8099 10.1855 20.1708C9.96491 20.8324 9.30326 21.3136 8.6015 21.2936C7.8797 21.3337 7.17795 20.8324 6.95739 20.1708C6.83709 19.8299 6.85714 19.4891 6.85714 19.1282C6.85714 17.5442 6.85714 15.9602 6.85714 14.3763C6.85714 13.5943 6.23559 12.8725 5.47368 12.7322C4.77193 12.5918 4.01003 12.9327 3.64912 13.5743C3.50877 13.8349 3.42857 14.1357 3.42857 14.4364V19.5893C3.42857 20.0906 3.20802 20.5918 2.82707 20.9126C2.24561 21.4139 1.30326 21.454 0.701754 20.9928C0.260652 20.6921 0 20.1708 0 19.6294V14.4164C0 12.4515 0.501253 10.4866 1.44361 8.74221C2.20551 7.31865 3.26817 6.05549 4.53133 5.05298C6.39599 3.48907 8.78196 2.56677 11.2281 2.42642Z" fill="white"/>
</svg>
