<svg width="214" height="40" viewBox="0 0 214 40" fill="none" xmlns="http://www.w3.org/2000/svg">
<g clip-path="url(#clip0_69_156)">
<path d="M39.9749 24.8381C37.3037 35.5525 26.4518 42.0731 15.7362 39.4013C5.02492 36.73 -1.4957 25.8775 1.1768 15.1638C3.8468 4.44813 14.6987 -2.07312 25.4112 0.598131C36.1262 3.26938 42.6462 14.1231 39.9749 24.8381Z" fill="#F7931A"/>
<path d="M29.3937 17.1506C29.7918 14.4894 27.7656 13.0588 24.9949 12.1044L25.8937 8.49938L23.6993 7.9525L22.8243 11.4625C22.2474 11.3188 21.6549 11.1831 21.0662 11.0487L21.9474 7.51562L19.7543 6.96875L18.8549 10.5725C18.3774 10.4638 17.9087 10.3563 17.4537 10.2431L17.4562 10.2319L14.4299 9.47625L13.8462 11.82C13.8462 11.82 15.4743 12.1931 15.4399 12.2162C16.3287 12.4381 16.4893 13.0262 16.4624 13.4925L15.4387 17.5994C15.4999 17.615 15.5793 17.6375 15.6668 17.6725C15.5937 17.6544 15.5156 17.6344 15.4349 17.615L13.9999 23.3681C13.8912 23.6381 13.6156 24.0431 12.9943 23.8894C13.0162 23.9213 11.3993 23.4913 11.3993 23.4913L10.3099 26.0031L13.1656 26.715C13.6968 26.8481 14.2174 26.9875 14.7299 27.1188L13.8218 30.765L16.0137 31.3119L16.9131 27.7044C17.5118 27.8669 18.0931 28.0169 18.6618 28.1581L17.7656 31.7487L19.9599 32.2956L20.8681 28.6562C24.6099 29.3644 27.4237 29.0787 28.6081 25.6944C29.5624 22.9694 28.5606 21.3975 26.5918 20.3725C28.0256 20.0419 29.1056 19.0988 29.3937 17.1506ZM24.3799 24.1813C23.7018 26.9062 19.1137 25.4331 17.6262 25.0637L18.8312 20.2331C20.3187 20.6044 25.0887 21.3394 24.3799 24.1813ZM25.0587 17.1112C24.4399 19.59 20.6212 18.3306 19.3824 18.0219L20.4749 13.6406C21.7137 13.9494 25.7031 14.5256 25.0587 17.1112Z" fill="white"/>
</g>
<path d="M208.034 16.3C208.734 16.3 209.342 16.3917 209.859 16.575C210.392 16.7417 210.776 16.9083 211.009 17.075C211.576 17.4583 211.926 17.2083 212.059 16.325H212.584C212.551 16.7917 212.526 17.3667 212.509 18.05C212.492 18.7167 212.484 19.6083 212.484 20.725H211.959C211.876 20.1083 211.717 19.5 211.484 18.9C211.251 18.3 210.909 17.8083 210.459 17.425C210.026 17.0417 209.459 16.85 208.759 16.85C208.276 16.85 207.867 16.9917 207.534 17.275C207.201 17.5417 207.034 17.9333 207.034 18.45C207.034 18.95 207.184 19.3917 207.484 19.775C207.784 20.1417 208.167 20.5 208.634 20.85C209.117 21.1833 209.617 21.5417 210.134 21.925C210.684 22.3417 211.184 22.7583 211.634 23.175C212.084 23.575 212.442 24.0167 212.709 24.5C212.976 24.9833 213.109 25.5583 213.109 26.225C213.109 26.975 212.892 27.6333 212.459 28.2C212.026 28.75 211.451 29.175 210.734 29.475C210.034 29.775 209.251 29.925 208.384 29.925C207.884 29.925 207.434 29.875 207.034 29.775C206.651 29.675 206.317 29.55 206.034 29.4C205.817 29.3 205.609 29.2083 205.409 29.125C205.226 29.025 205.051 28.9417 204.884 28.875C204.717 28.825 204.567 28.8833 204.434 29.05C204.317 29.2167 204.226 29.45 204.159 29.75H203.634C203.667 29.2167 203.692 28.5667 203.709 27.8C203.726 27.0333 203.734 26.0167 203.734 24.75H204.259C204.359 25.65 204.542 26.45 204.809 27.15C205.076 27.8333 205.434 28.375 205.884 28.775C206.351 29.1583 206.934 29.35 207.634 29.35C207.917 29.35 208.192 29.2917 208.459 29.175C208.726 29.0583 208.942 28.8667 209.109 28.6C209.292 28.3333 209.384 27.9917 209.384 27.575C209.384 26.8417 209.142 26.2333 208.659 25.75C208.192 25.2667 207.592 24.7417 206.859 24.175C206.326 23.7417 205.817 23.3167 205.334 22.9C204.867 22.4667 204.484 22 204.184 21.5C203.884 20.9833 203.734 20.4 203.734 19.75C203.734 19 203.934 18.3667 204.334 17.85C204.734 17.3333 205.259 16.95 205.909 16.7C206.576 16.4333 207.284 16.3 208.034 16.3Z" fill="#1E1F20"/>
<path d="M196.936 16.3C198.403 16.3 199.553 16.7333 200.386 17.6C201.22 18.4667 201.636 19.8833 201.636 21.85H193.411L193.361 21.375H198.486C198.503 20.5583 198.453 19.8083 198.336 19.125C198.22 18.425 198.036 17.8667 197.786 17.45C197.536 17.0333 197.203 16.825 196.786 16.825C196.203 16.825 195.703 17.1917 195.286 17.925C194.886 18.6583 194.645 19.875 194.561 21.575L194.636 21.725C194.62 21.925 194.603 22.1333 194.586 22.35C194.586 22.5667 194.586 22.7917 194.586 23.025C194.586 24.175 194.745 25.1083 195.061 25.825C195.395 26.5417 195.811 27.0667 196.311 27.4C196.811 27.7167 197.32 27.875 197.836 27.875C198.186 27.875 198.545 27.825 198.911 27.725C199.295 27.6083 199.678 27.4083 200.061 27.125C200.445 26.825 200.803 26.4083 201.136 25.875L201.586 26.025C201.386 26.6583 201.07 27.275 200.636 27.875C200.203 28.475 199.653 28.9667 198.986 29.35C198.32 29.7333 197.52 29.925 196.586 29.925C195.453 29.925 194.453 29.6833 193.586 29.2C192.72 28.7167 192.036 27.9833 191.536 27C191.053 26.0167 190.811 24.7667 190.811 23.25C190.811 21.7 191.07 20.4083 191.586 19.375C192.12 18.3417 192.845 17.575 193.761 17.075C194.695 16.5583 195.753 16.3 196.936 16.3Z" fill="#1E1F20"/>
<path d="M185.851 10.2C186.551 10.2 187.101 10.375 187.501 10.725C187.917 11.0583 188.126 11.525 188.126 12.125C188.126 12.725 187.917 13.2 187.501 13.55C187.101 13.8833 186.551 14.05 185.851 14.05C185.151 14.05 184.592 13.8833 184.176 13.55C183.776 13.2 183.576 12.725 183.576 12.125C183.576 11.525 183.776 11.0583 184.176 10.725C184.592 10.375 185.151 10.2 185.851 10.2ZM187.801 16.375V27.25C187.801 27.95 187.917 28.425 188.151 28.675C188.401 28.925 188.817 29.05 189.401 29.05V29.575C189.101 29.5583 188.634 29.5417 188.001 29.525C187.367 29.4917 186.726 29.475 186.076 29.475C185.426 29.475 184.767 29.4917 184.101 29.525C183.434 29.5417 182.934 29.5583 182.601 29.575V29.05C183.184 29.05 183.592 28.925 183.826 28.675C184.076 28.425 184.201 27.95 184.201 27.25V19.375C184.201 18.625 184.084 18.075 183.851 17.725C183.634 17.3583 183.217 17.175 182.601 17.175V16.65C183.134 16.7 183.651 16.725 184.151 16.725C184.851 16.725 185.501 16.7 186.101 16.65C186.717 16.5833 187.284 16.4917 187.801 16.375Z" fill="#1E1F20"/>
<path d="M181.98 16.65V17.15C181.664 17.2333 181.364 17.4333 181.08 17.75C180.797 18.05 180.522 18.5667 180.255 19.3L176.605 29.625C176.339 29.6083 176.064 29.6 175.78 29.6C175.514 29.6 175.247 29.6083 174.98 29.625L170.53 18.575C170.264 17.925 169.997 17.5333 169.73 17.4C169.48 17.25 169.264 17.175 169.08 17.175V16.65C169.614 16.6833 170.164 16.7167 170.73 16.75C171.314 16.7667 171.947 16.775 172.63 16.775C173.147 16.775 173.689 16.7667 174.255 16.75C174.839 16.7167 175.38 16.6833 175.88 16.65V17.175C175.53 17.175 175.214 17.1917 174.93 17.225C174.664 17.2583 174.48 17.3667 174.38 17.55C174.28 17.7333 174.297 18.0583 174.43 18.525L177.355 26.275L177.105 26.625L179.08 21.15C179.397 20.25 179.53 19.5167 179.48 18.95C179.43 18.3667 179.247 17.9333 178.93 17.65C178.614 17.35 178.189 17.1833 177.655 17.15V16.65C177.905 16.6667 178.172 16.6833 178.455 16.7C178.755 16.7 179.039 16.7083 179.305 16.725C179.589 16.725 179.839 16.725 180.055 16.725C180.389 16.725 180.739 16.7167 181.105 16.7C181.472 16.6833 181.764 16.6667 181.98 16.65Z" fill="#1E1F20"/>
<path d="M167.264 10V26.825C167.264 27.575 167.381 28.1333 167.614 28.5C167.847 28.85 168.264 29.025 168.864 29.025V29.55C168.347 29.5 167.831 29.475 167.314 29.475C166.614 29.475 165.956 29.5 165.339 29.55C164.739 29.6 164.181 29.6917 163.664 29.825V13C163.664 12.25 163.547 11.7 163.314 11.35C163.097 10.9833 162.681 10.8 162.064 10.8V10.275C162.597 10.325 163.114 10.35 163.614 10.35C164.297 10.35 164.947 10.325 165.564 10.275C166.181 10.2083 166.747 10.1167 167.264 10ZM160.889 16.3C161.622 16.3 162.264 16.425 162.814 16.675C163.381 16.9083 163.822 17.3083 164.139 17.875L163.839 18.15C163.622 17.75 163.331 17.4667 162.964 17.3C162.614 17.1167 162.239 17.025 161.839 17.025C160.989 17.025 160.314 17.525 159.814 18.525C159.314 19.5083 159.072 21.0333 159.089 23.1C159.089 24.5167 159.181 25.65 159.364 26.5C159.564 27.3333 159.839 27.9333 160.189 28.3C160.556 28.6667 160.972 28.85 161.439 28.85C162.006 28.85 162.514 28.625 162.964 28.175C163.414 27.725 163.656 27.1167 163.689 26.35L163.814 27.225C163.564 28.1083 163.156 28.7833 162.589 29.25C162.039 29.7 161.314 29.925 160.414 29.925C159.431 29.925 158.547 29.6833 157.764 29.2C156.997 28.7167 156.397 27.975 155.964 26.975C155.531 25.9583 155.314 24.65 155.314 23.05C155.314 21.5333 155.556 20.2833 156.039 19.3C156.522 18.3 157.181 17.55 158.014 17.05C158.864 16.55 159.822 16.3 160.889 16.3Z" fill="#1E1F20"/>
<path d="M146.889 11.825L152.964 27.475C153.198 28.075 153.456 28.4917 153.739 28.725C154.039 28.9417 154.306 29.0583 154.539 29.075V29.575C154.039 29.5417 153.448 29.525 152.764 29.525C152.098 29.5083 151.423 29.5 150.739 29.5C149.973 29.5 149.248 29.5083 148.564 29.525C147.881 29.525 147.339 29.5417 146.939 29.575V29.075C147.789 29.0417 148.323 28.9 148.539 28.65C148.773 28.3833 148.723 27.825 148.389 26.975L144.139 15.35L144.589 14.7L140.789 24.6C140.423 25.5167 140.198 26.2667 140.114 26.85C140.048 27.4333 140.089 27.8833 140.239 28.2C140.406 28.5167 140.664 28.7417 141.014 28.875C141.381 28.9917 141.814 29.0583 142.314 29.075V29.575C141.764 29.5417 141.239 29.525 140.739 29.525C140.239 29.5083 139.731 29.5 139.214 29.5C138.848 29.5 138.498 29.5083 138.164 29.525C137.848 29.525 137.564 29.5417 137.314 29.575V29.075C137.664 29.0083 138.023 28.7833 138.389 28.4C138.756 28.0167 139.114 27.3667 139.464 26.45L145.164 11.825C145.431 11.8417 145.714 11.85 146.014 11.85C146.331 11.85 146.623 11.8417 146.889 11.825ZM148.639 22.375V22.875H141.189L141.439 22.375H148.639Z" fill="#1E1F20"/>
<path d="M127.374 16.3C128.074 16.3 128.641 16.3917 129.074 16.575C129.524 16.7417 129.874 16.975 130.124 17.275C130.391 17.5917 130.583 18 130.699 18.5C130.833 19 130.899 19.675 130.899 20.525V27.25C130.899 27.95 131.016 28.425 131.249 28.675C131.499 28.925 131.916 29.05 132.499 29.05V29.575C132.183 29.5583 131.708 29.5417 131.074 29.525C130.441 29.4917 129.816 29.475 129.199 29.475C128.566 29.475 127.941 29.4917 127.324 29.525C126.724 29.5417 126.266 29.5583 125.949 29.575V29.05C126.449 29.05 126.799 28.925 126.999 28.675C127.199 28.425 127.299 27.95 127.299 27.25V19.475C127.299 19.0583 127.258 18.7 127.174 18.4C127.091 18.0833 126.941 17.8417 126.724 17.675C126.508 17.4917 126.183 17.4 125.749 17.4C125.299 17.4 124.883 17.525 124.499 17.775C124.133 18.025 123.833 18.375 123.599 18.825C123.383 19.2583 123.274 19.75 123.274 20.3V27.25C123.274 27.95 123.374 28.425 123.574 28.675C123.791 28.925 124.141 29.05 124.624 29.05V29.575C124.324 29.5583 123.883 29.5417 123.299 29.525C122.733 29.4917 122.141 29.475 121.524 29.475C120.891 29.475 120.241 29.4917 119.574 29.525C118.908 29.5417 118.408 29.5583 118.074 29.575V29.05C118.658 29.05 119.066 28.925 119.299 28.675C119.549 28.425 119.674 27.95 119.674 27.25V19.375C119.674 18.625 119.558 18.075 119.324 17.725C119.108 17.3583 118.691 17.175 118.074 17.175V16.65C118.608 16.7 119.124 16.725 119.624 16.725C120.324 16.725 120.974 16.7 121.574 16.65C122.191 16.5833 122.758 16.4917 123.274 16.375V18.625C123.691 17.775 124.258 17.175 124.974 16.825C125.691 16.475 126.491 16.3 127.374 16.3Z" fill="#1E1F20"/>
<path d="M113.439 10.2C114.139 10.2 114.689 10.375 115.089 10.725C115.505 11.0583 115.714 11.525 115.714 12.125C115.714 12.725 115.505 13.2 115.089 13.55C114.689 13.8833 114.139 14.05 113.439 14.05C112.739 14.05 112.18 13.8833 111.764 13.55C111.364 13.2 111.164 12.725 111.164 12.125C111.164 11.525 111.364 11.0583 111.764 10.725C112.18 10.375 112.739 10.2 113.439 10.2ZM115.389 16.375V27.25C115.389 27.95 115.505 28.425 115.739 28.675C115.989 28.925 116.405 29.05 116.989 29.05V29.575C116.689 29.5583 116.222 29.5417 115.589 29.525C114.955 29.4917 114.314 29.475 113.664 29.475C113.014 29.475 112.355 29.4917 111.689 29.525C111.022 29.5417 110.522 29.5583 110.189 29.575V29.05C110.772 29.05 111.18 28.925 111.414 28.675C111.664 28.425 111.789 27.95 111.789 27.25V19.375C111.789 18.625 111.672 18.075 111.439 17.725C111.222 17.3583 110.805 17.175 110.189 17.175V16.65C110.722 16.7 111.239 16.725 111.739 16.725C112.439 16.725 113.089 16.7 113.689 16.65C114.305 16.5833 114.872 16.4917 115.389 16.375Z" fill="#1E1F20"/>
<path d="M102.503 16.3C103.72 16.3 104.786 16.525 105.703 16.975C106.62 17.425 107.336 18.15 107.853 19.15C108.37 20.15 108.628 21.475 108.628 23.125C108.628 24.775 108.37 26.1 107.853 27.1C107.336 28.0833 106.62 28.8 105.703 29.25C104.786 29.7 103.72 29.925 102.503 29.925C101.32 29.925 100.261 29.7 99.3279 29.25C98.4112 28.8 97.6862 28.0833 97.1529 27.1C96.6362 26.1 96.3779 24.775 96.3779 23.125C96.3779 21.475 96.6362 20.15 97.1529 19.15C97.6862 18.15 98.4112 17.425 99.3279 16.975C100.261 16.525 101.32 16.3 102.503 16.3ZM102.503 16.8C101.836 16.8 101.278 17.3 100.828 18.3C100.378 19.2833 100.153 20.8917 100.153 23.125C100.153 25.3583 100.378 26.9667 100.828 27.95C101.278 28.9333 101.836 29.425 102.503 29.425C103.186 29.425 103.745 28.9333 104.178 27.95C104.628 26.9667 104.853 25.3583 104.853 23.125C104.853 20.8917 104.628 19.2833 104.178 18.3C103.745 17.3 103.186 16.8 102.503 16.8Z" fill="#1E1F20"/>
<path d="M90.1505 16.3C90.8005 16.3 91.3922 16.375 91.9255 16.525C92.4755 16.6583 92.9255 16.8333 93.2755 17.05C93.7088 17.3167 94.0422 17.65 94.2755 18.05C94.5255 18.4333 94.6505 18.8833 94.6505 19.4C94.6505 19.9833 94.4672 20.4667 94.1005 20.85C93.7338 21.2167 93.2588 21.4 92.6755 21.4C92.0922 21.4 91.6255 21.2333 91.2755 20.9C90.9255 20.5667 90.7505 20.1167 90.7505 19.55C90.7505 19.0167 90.9172 18.575 91.2505 18.225C91.5838 17.8583 91.9672 17.6167 92.4005 17.5C92.2672 17.3333 92.0672 17.1917 91.8005 17.075C91.5338 16.9583 91.2338 16.9 90.9005 16.9C90.3838 16.9 89.9255 17.05 89.5255 17.35C89.1422 17.65 88.8172 18.0667 88.5505 18.6C88.2838 19.1333 88.0755 19.7583 87.9255 20.475C87.7922 21.1917 87.7255 21.975 87.7255 22.825C87.7255 24.1083 87.8839 25.1167 88.2005 25.85C88.5338 26.5833 88.9505 27.1 89.4505 27.4C89.9672 27.7 90.5005 27.85 91.0505 27.85C91.3672 27.85 91.7088 27.8 92.0755 27.7C92.4588 27.6 92.8422 27.4 93.2255 27.1C93.6255 26.8 93.9922 26.375 94.3255 25.825L94.7505 25.975C94.5672 26.5917 94.2672 27.2083 93.8505 27.825C93.4338 28.4417 92.8922 28.95 92.2255 29.35C91.5588 29.7333 90.7422 29.925 89.7755 29.925C88.6922 29.925 87.7089 29.6917 86.8255 29.225C85.9589 28.7417 85.2588 28.0083 84.7255 27.025C84.2088 26.025 83.9505 24.7417 83.9505 23.175C83.9505 21.675 84.2172 20.4167 84.7505 19.4C85.3005 18.3667 86.0422 17.5917 86.9755 17.075C87.9088 16.5583 88.9672 16.3 90.1505 16.3Z" fill="#1E1F20"/>
<path d="M80.0341 12.55V16.65H82.9841V17.15H80.0341V27.25C80.0341 27.75 80.1258 28.1083 80.3091 28.325C80.4924 28.525 80.7674 28.625 81.1341 28.625C81.4341 28.625 81.7341 28.5167 82.0341 28.3C82.3341 28.0667 82.6008 27.675 82.8341 27.125L83.2591 27.35C82.9924 28.1 82.5841 28.7167 82.0341 29.2C81.5008 29.6833 80.7674 29.925 79.8341 29.925C79.2841 29.925 78.8008 29.85 78.3841 29.7C77.9674 29.5667 77.6174 29.3583 77.3341 29.075C76.9674 28.7083 76.7258 28.2583 76.6091 27.725C76.4924 27.175 76.4341 26.4667 76.4341 25.6V17.15H74.3341V16.65H76.4341V13.35C77.1341 13.35 77.7758 13.2917 78.3591 13.175C78.9591 13.0417 79.5174 12.8333 80.0341 12.55Z" fill="#1E1F20"/>
<path d="M70.3234 10.2C71.0234 10.2 71.5734 10.375 71.9734 10.725C72.39 11.0583 72.5984 11.525 72.5984 12.125C72.5984 12.725 72.39 13.2 71.9734 13.55C71.5734 13.8833 71.0234 14.05 70.3234 14.05C69.6234 14.05 69.065 13.8833 68.6484 13.55C68.2484 13.2 68.0484 12.725 68.0484 12.125C68.0484 11.525 68.2484 11.0583 68.6484 10.725C69.065 10.375 69.6234 10.2 70.3234 10.2ZM72.2734 16.375V27.25C72.2734 27.95 72.39 28.425 72.6234 28.675C72.8734 28.925 73.29 29.05 73.8734 29.05V29.575C73.5734 29.5583 73.1067 29.5417 72.4734 29.525C71.84 29.4917 71.1984 29.475 70.5484 29.475C69.8984 29.475 69.24 29.4917 68.5734 29.525C67.9067 29.5417 67.4067 29.5583 67.0734 29.575V29.05C67.6567 29.05 68.065 28.925 68.2984 28.675C68.5484 28.425 68.6734 27.95 68.6734 27.25V19.375C68.6734 18.625 68.5567 18.075 68.3234 17.725C68.1067 17.3583 67.69 17.175 67.0734 17.175V16.65C67.6067 16.7 68.1234 16.725 68.6234 16.725C69.3234 16.725 69.9734 16.7 70.5734 16.65C71.19 16.5833 71.7567 16.4917 72.2734 16.375Z" fill="#1E1F20"/>
<path d="M50.5753 11.875C51.0087 11.8917 51.5753 11.9083 52.2753 11.925C52.9753 11.9417 53.6753 11.95 54.3753 11.95C55.1753 11.95 55.9503 11.9417 56.7003 11.925C57.4503 11.9083 57.9837 11.9 58.3003 11.9C60.367 11.9 61.9087 12.2667 62.9253 13C63.9587 13.7333 64.4753 14.675 64.4753 15.825C64.4753 16.4083 64.3003 17 63.9503 17.6C63.6003 18.2 63.0587 18.7333 62.3253 19.2C61.592 19.6667 60.642 20.0083 59.4753 20.225V20.275C61.042 20.3917 62.2837 20.675 63.2003 21.125C64.117 21.575 64.7753 22.1167 65.1753 22.75C65.5753 23.3833 65.7753 24.0417 65.7753 24.725C65.7753 25.775 65.5003 26.6583 64.9503 27.375C64.4003 28.0917 63.6087 28.6417 62.5753 29.025C61.542 29.3917 60.3087 29.575 58.8753 29.575C58.4753 29.575 57.9003 29.5667 57.1503 29.55C56.4003 29.5167 55.492 29.5 54.4253 29.5C53.692 29.5 52.9753 29.5083 52.2753 29.525C51.5753 29.525 51.0087 29.5417 50.5753 29.575V29.075C51.1087 29.0417 51.5087 28.975 51.7753 28.875C52.042 28.775 52.217 28.575 52.3003 28.275C52.4003 27.975 52.4503 27.525 52.4503 26.925V14.525C52.4503 13.9083 52.4003 13.4583 52.3003 13.175C52.217 12.875 52.0337 12.675 51.7503 12.575C51.4837 12.4583 51.092 12.3917 50.5753 12.375V11.875ZM57.9753 12.375C57.3253 12.375 56.9003 12.5167 56.7003 12.8C56.517 13.0833 56.4253 13.6583 56.4253 14.525V26.925C56.4253 27.5083 56.467 27.95 56.5503 28.25C56.6503 28.55 56.817 28.75 57.0503 28.85C57.3003 28.95 57.667 29 58.1503 29C59.3503 29 60.2253 28.625 60.7753 27.875C61.342 27.1083 61.6253 26.025 61.6253 24.625C61.6253 23.3417 61.3003 22.35 60.6503 21.65C60.017 20.95 58.9587 20.6 57.4753 20.6H55.3503C55.3503 20.6 55.3503 20.5333 55.3503 20.4C55.3503 20.25 55.3503 20.175 55.3503 20.175H57.5003C58.2837 20.175 58.8837 19.9917 59.3003 19.625C59.717 19.2417 60.0087 18.7417 60.1753 18.125C60.342 17.4917 60.4253 16.8167 60.4253 16.1C60.4253 14.8667 60.2337 13.9417 59.8503 13.325C59.467 12.6917 58.842 12.375 57.9753 12.375Z" fill="#1E1F20"/>
<defs>
<clipPath id="clip0_69_156">
<rect width="40" height="40" fill="white" transform="translate(0.575317)"/>
</clipPath>
</defs>
</svg>
